<mxfile host="app.diagrams.net" modified="2024-06-25T08:33:06.929Z" agent="Mozilla/5.0 (X11; Ubuntu; Linux x86_64; rv:126.0) Gecko/20100101 Firefox/126.0" version="24.5.4" etag="tsXIkNc6EmYWDeJ66y50" type="github">
  <diagram name="Page-1" id="KT4xsNnemqqROEKbrAN2">
    <mxGraphModel>
      <root>
        <mxCell id="0" />
        <mxCell id="1" parent="0" />
      </root>
    </mxGraphModel>
  </diagram>
</mxfile>
